<svg xmlns="http://www.w3.org/2000/svg" height="26" width="26" viewBox="0 0 28 28"><path fill="#A78BFA" d="M19.003 22.19 1.063 9.813C-.755 8.56-.137 5.95 2.13 5.335L21.197.16a2.7 2.7 0 0 1 3.616 2.492l-1.13 17.55c-.134 2.082-2.862 3.241-4.68 1.987"/><path fill="#1dace3" d="M13.313 25.244 2.743 4.575A2.883 2.883 0 0 1 5.752.415l19.587 3.022A2.883 2.883 0 0 1 27.465 7.6l-9.023 17.646a2.883 2.883 0 0 1-5.13 0"/><path fill="#001a49" d="M24.765 3.348 15 1.841 3.013 5.096l4.785 9.361 11.205 7.732a2.9 2.9 0 0 0 .806.383l4.256-8.323z"/></svg>