<?xml version="1.0" encoding="UTF-8" standalone="no"?>
<svg
   xmlns:dc="http://purl.org/dc/elements/1.1/"
   xmlns:cc="http://creativecommons.org/ns#"
   xmlns:rdf="http://www.w3.org/1999/02/22-rdf-syntax-ns#"
   xmlns:svg="http://www.w3.org/2000/svg"
   xmlns="http://www.w3.org/2000/svg"
   xmlns:sodipodi="http://sodipodi.sourceforge.net/DTD/sodipodi-0.dtd"
   xmlns:inkscape="http://www.inkscape.org/namespaces/inkscape"
   inkscape:version="1.0 (4035a4fb49, 2020-05-01)"
   height="26.810577"
   width="133.8017"
   sodipodi:docname="logo.svg"
   version="1.1"
   viewBox="0 0 28 28"
   id="logoipsum">
  <metadata
     id="metadata27">
    <rdf:RDF>
      <cc:Work
         rdf:about="">
        <dc:format>image/svg+xml</dc:format>
        <dc:type
           rdf:resource="http://purl.org/dc/dcmitype/StillImage" />
      </cc:Work>
    </rdf:RDF>
  </metadata>
  <defs
     id="defs25" />
  <sodipodi:namedview
     inkscape:current-layer="logoipsum"
     inkscape:window-maximized="1"
     inkscape:window-y="30"
     inkscape:window-x="0"
     inkscape:cy="13.430281"
     inkscape:cx="67.197009"
     inkscape:zoom="6.7724915"
     showgrid="false"
     id="namedview23"
     inkscape:window-height="1021"
     inkscape:window-width="1920"
     inkscape:pageshadow="2"
     inkscape:pageopacity="0"
     guidetolerance="10"
     gridtolerance="10"
     objecttolerance="10"
     borderopacity="1"
     bordercolor="#666666"
     pagecolor="#ffffff" />
  <path
     id="path2"
     fill="#A78BFA"
     d="M 19.002696,22.189281 1.0626964,9.8142813 c -1.81799998,-1.254 -1.19999998,-3.865 1.067,-4.479 L 21.196696,0.16028127 a 2.7,2.7 0 0 1 3.616,2.49200003 l -1.13,17.5489997 c -0.134,2.083 -2.862,3.242 -4.68,1.988 z" />
  <path
     id="path4"
     fill="#1dace3"
     d="M 13.312696,25.244281 2.7436964,4.5752813 a 2.883,2.883 0 0 1 3.007,-4.16100003 L 25.337696,3.4372813 a 2.883,2.883 0 0 1 2.127,4.162 l -9.023,17.6459997 a 2.883,2.883 0 0 1 -5.129,-10e-4 z" />
  <path
     id="path6"
     fill="#001a49"
     d="m 24.764696,3.3482813 -9.764,-1.507 -11.9879996,3.255 4.785,9.3609997 11.2049996,7.732 a 2.888,2.888 0 0 0 0.806,0.383 l 4.256,-8.323 z" />
</svg>
